<?xml version="1.0" encoding="UTF-8" standalone="no"?>
<svg
   xmlns:dc="http://purl.org/dc/elements/1.1/"
   xmlns:cc="http://creativecommons.org/ns#"
   xmlns:rdf="http://www.w3.org/1999/02/22-rdf-syntax-ns#"
   xmlns:svg="http://www.w3.org/2000/svg"
   xmlns="http://www.w3.org/2000/svg"
   id="svg946"
   version="1.1"
   viewBox="0 0 8.4666665 8.466667"
   height="32"
   width="32">
  <defs
     id="defs940" />
  <metadata
     id="metadata943">
    <rdf:RDF>
      <cc:Work
         rdf:about="">
        <dc:format>image/svg+xml</dc:format>
        <dc:type
           rdf:resource="http://purl.org/dc/dcmitype/StillImage" />
        <dc:title></dc:title>
      </cc:Work>
    </rdf:RDF>
  </metadata>
  <g
     transform="translate(0,-288.53332)"
     id="layer1">
    <rect
       y="278.44608"
       x="0"
       height="1.6205729"
       width="8.4666662"
       id="rect1524"
       style="opacity:1;fill:#e6e6e6;fill-opacity:1;stroke:none;stroke-width:1;stroke-miterlimit:4;stroke-dasharray:none;stroke-opacity:1;paint-order:stroke markers fill" />
    <rect
       style="opacity:1;fill:#e6e6e6;fill-opacity:1;stroke:none;stroke-width:1.90276563;stroke-miterlimit:4;stroke-dasharray:none;stroke-opacity:1;paint-order:stroke markers fill"
       id="rect1540"
       width="5.8673139"
       height="8.4666624"
       x="-5.8673139"
       y="288.53333" />
    <path
       style="opacity:1;fill:#000000;fill-opacity:1;stroke:none;stroke-width:0.22699571;stroke-miterlimit:4;stroke-dasharray:none;stroke-opacity:1;paint-order:stroke markers fill"
       d="m 5.1609362,289.19478 -3.557078,0.98263 -0.92764704,3.57191 2.62960604,2.58921 3.557077,-0.98262 0.927561,-3.57192 z m -0.923697,1.993 a 1.5789195,1.5789195 0 0 1 1.57506,1.58278 1.5789195,1.5789195 0 0 1 -1.582787,1.57498 1.5789195,1.5789195 0 0 1 -1.575059,-1.58279 1.5789195,1.5789195 0 0 1 1.582786,-1.57497 z"
       id="path1395" />
    <path
       id="path1399"
       d="m 19.318827,304.57979 c -0.574267,-0.1393 -0.933843,-0.72972 -0.791085,-1.29896 l 0.03447,-0.13747 -0.524241,-0.53003 c -0.288332,-0.29151 -0.979561,-0.98834 -1.536062,-1.54851 l -1.011823,-1.01848 -0.10568,0.0323 c -0.05813,0.0178 -0.179883,0.0323 -0.270575,0.0323 -0.301289,0 -0.568421,-0.11573 -0.773766,-0.33525 -0.227188,-0.24286 -0.326435,-0.54571 -0.282968,-0.86344 0.01326,-0.0969 0.03482,-0.20687 0.04792,-0.24447 l 0.02383,-0.0683 0.379483,0.37905 0.37948,0.37904 0.299193,-0.29976 0.29919,-0.29977 -0.36941,-0.38278 c -0.203177,-0.21059 -0.369413,-0.3894 -0.369413,-0.39743 0,-0.0182 0.146819,-0.0555 0.293264,-0.0747 0.273259,-0.0358 0.633647,0.0966 0.849343,0.31191 0.245566,0.24513 0.365224,0.62754 0.296505,0.94759 l -0.03299,0.15365 0.873877,0.87769 c 0.480632,0.48274 1.188726,1.1982 1.573541,1.58993 l 0.699669,0.71226 0.118403,-0.0193 c 0.217176,-0.0355 0.50978,0.0118 0.731865,0.11819 0.422282,0.20233 0.661953,0.71277 0.559127,1.19079 -0.0421,0.19569 -0.02826,0.20235 -0.445711,-0.21425 l -0.382934,-0.38217 -0.30088,0.30147 -0.300883,0.30146 0.371103,0.37155 c 0.204107,0.20435 0.3711,0.37756 0.3711,0.38492 0,0.0579 -0.500968,0.08 -0.70294,0.0309 z m -4.836283,-0.21494 c -0.149679,-0.0409 -0.274014,-0.13961 -0.345417,-0.27413 -0.05228,-0.0985 -0.05974,-0.13305 -0.05083,-0.23541 0.01297,-0.14899 0.07031,-0.26264 0.191055,-0.37876 0.144269,-0.13873 2.327959,-2.05236 2.342002,-2.05236 0.0068,0 0.121703,0.10959 0.255263,0.24353 l 0.242839,0.24353 -0.822667,0.89208 c -0.452465,0.49064 -0.93972,1.0213 -1.082785,1.17924 -0.338635,0.37383 -0.483264,0.44962 -0.729462,0.38228 z m 3.33225,-3.63038 -0.193418,-0.1948 0.230464,-0.21973 0.230458,-0.21973 -0.03266,-0.29063 c -0.01795,-0.15985 -0.02713,-0.33376 -0.02037,-0.38647 0.04202,-0.32793 0.35844,-0.61583 1.759966,-1.60135 0.280605,-0.19732 0.524032,-0.35875 0.540952,-0.35875 0.01693,0 0.04198,0.0136 0.05569,0.03 0.02019,0.0243 -0.119212,0.16818 -0.734706,0.75813 -0.417796,0.40045 -0.771523,0.74922 -0.786055,0.77504 -0.03652,0.0649 0.01551,0.11182 0.08626,0.0779 0.02629,-0.0126 0.395555,-0.33894 0.820583,-0.72516 l 0.772781,-0.7022 0.05145,0.0483 0.05146,0.0484 -0.751448,0.75438 c -0.413301,0.41492 -0.757797,0.77274 -0.765552,0.79517 -0.01622,0.0469 0.03997,0.12068 0.09183,0.12068 0.0185,0 0.373199,-0.33907 0.788224,-0.75349 0.415023,-0.41442 0.765015,-0.75348 0.77776,-0.75348 0.01274,0 0.03918,0.0177 0.05876,0.0393 0.03373,0.0373 0.0095,0.0685 -0.463353,0.59741 -0.27442,0.30694 -0.603781,0.67262 -0.731918,0.81261 -0.128136,0.13999 -0.232972,0.26232 -0.232972,0.27184 0,0.0343 0.06339,0.0689 0.103187,0.0563 0.02237,-0.007 0.368647,-0.35665 0.769504,-0.77679 0.400858,-0.42013 0.740811,-0.76388 0.755452,-0.76388 0.05272,0 0.05516,0.0844 0.0046,0.15609 -0.110991,0.15705 -1.038912,1.4292 -1.179679,1.6173 -0.285637,0.3817 -0.551587,0.57312 -0.7963,0.57316 -0.06449,1e-5 -0.225967,-0.0106 -0.358828,-0.0236 -0.134408,-0.0132 -0.255797,-0.0155 -0.273648,-0.006 -0.01765,0.01 -0.116581,0.11024 -0.219854,0.22272 -0.103271,0.11249 -0.193922,0.20699 -0.201445,0.21001 -0.0075,0.003 -0.100719,-0.0822 -0.2071,-0.1893 z"
       style="fill:#000000;fill-opacity:1;stroke-width:0.02152815" />
    <g
       transform="translate(88.726076,214.6663)"
       id="g1333">
      <g
         id="g1244">
        <path
           id="path2951"
           d="m -104.91595,125.50192 -4.73305,1.30741 -1.23403,4.75268 3.49901,3.44527 4.73305,-1.30741 1.23403,-4.75269 z m -1.22886,2.65151 a 2.1009095,2.1009095 0 0 1 2.09599,2.10634 2.1009095,2.1009095 0 0 1 -2.10633,2.09547 2.1009095,2.1009095 0 0 1 -2.09548,-2.10581 2.1009095,2.1009095 0 0 1 2.10582,-2.096 z"
           style="opacity:1;fill:#000000;fill-opacity:1;stroke:none;stroke-width:0.30204037;stroke-miterlimit:4;stroke-dasharray:none;stroke-opacity:1;paint-order:stroke markers fill" />
        <path
           id="path2957"
           d="m -90.386087,125.50192 -4.733044,1.30741 -1.234033,4.75268 3.499012,3.44527 4.733044,-1.30741 1.234032,-4.75269 z m -1.228866,2.65151 a 2.1009095,2.1009095 0 0 1 2.095998,2.10634 2.1009095,2.1009095 0 0 1 -2.106332,2.09547 2.1009095,2.1009095 0 0 1 -2.095479,-2.10581 2.1009095,2.1009095 0 0 1 2.105813,-2.096 z"
           style="opacity:1;fill:#000000;fill-opacity:1;stroke:none;stroke-width:0.30204037;stroke-miterlimit:4;stroke-dasharray:none;stroke-opacity:1;paint-order:stroke markers fill" />
        <path
           id="path2963"
           d="m -75.856223,125.50192 -4.733044,1.30741 -1.234036,4.75268 3.498496,3.44527 4.733563,-1.30741 1.234032,-4.75269 z m -1.228866,2.65151 a 2.1009095,2.1009095 0 0 1 2.095479,2.10634 2.1009095,2.1009095 0 0 1 -2.105816,2.09547 2.1009095,2.1009095 0 0 1 -2.095995,-2.10581 2.1009095,2.1009095 0 0 1 2.106332,-2.096 z"
           style="opacity:1;fill:#000000;fill-opacity:1;stroke:none;stroke-width:0.30204037;stroke-miterlimit:4;stroke-dasharray:none;stroke-opacity:1;paint-order:stroke markers fill" />
        <path
           id="path2969"
           d="m -61.326362,125.50192 -4.733044,1.30741 -1.234033,4.75268 3.498496,3.44527 4.733044,-1.30741 1.234549,-4.75269 z m -1.228865,2.65151 a 2.1009095,2.1009095 0 0 1 2.095479,2.10634 2.1009095,2.1009095 0 0 1 -2.105814,2.09547 2.1009095,2.1009095 0 0 1 -2.095995,-2.10581 2.1009095,2.1009095 0 0 1 2.10633,-2.096 z"
           style="opacity:1;fill:#000000;fill-opacity:1;stroke:none;stroke-width:0.30204037;stroke-miterlimit:4;stroke-dasharray:none;stroke-opacity:1;paint-order:stroke markers fill" />
        <path
           id="path2975"
           d="m -46.796498,125.50192 -4.733044,1.30741 -1.234551,4.75268 3.499011,3.44527 4.733044,-1.30741 1.234552,-4.75269 z m -1.228865,2.65151 a 2.1009095,2.1009095 0 0 1 2.095479,2.10634 2.1009095,2.1009095 0 0 1 -2.105814,2.09547 2.1009095,2.1009095 0 0 1 -2.095997,-2.10581 2.1009095,2.1009095 0 0 1 2.106332,-2.096 z"
           style="opacity:1;fill:#000000;fill-opacity:1;stroke:none;stroke-width:0.30204037;stroke-miterlimit:4;stroke-dasharray:none;stroke-opacity:1;paint-order:stroke markers fill" />
      </g>
      <g
         id="g1251">
        <path
           id="path2983"
           d="m -104.91595,109.23624 -4.73305,1.30742 -1.23403,4.75268 3.49901,3.44527 4.73305,-1.30742 1.23403,-4.75268 z m -1.22886,2.65204 a 2.1009095,2.1009095 0 0 1 2.09599,2.10581 2.1009095,2.1009095 0 0 1 -2.10633,2.096 2.1009095,2.1009095 0 0 1 -2.09548,-2.10633 2.1009095,2.1009095 0 0 1 2.10582,-2.09548 z"
           style="opacity:1;fill:#000000;fill-opacity:1;stroke:none;stroke-width:0.30204037;stroke-miterlimit:4;stroke-dasharray:none;stroke-opacity:1;paint-order:stroke markers fill" />
        <path
           id="path2989"
           d="m -90.386087,109.23624 -4.733044,1.30742 -1.234033,4.75268 3.499012,3.44527 4.733044,-1.30742 1.234032,-4.75268 z m -1.228866,2.65204 a 2.1009095,2.1009095 0 0 1 2.095998,2.10581 2.1009095,2.1009095 0 0 1 -2.106332,2.096 2.1009095,2.1009095 0 0 1 -2.095479,-2.10633 2.1009095,2.1009095 0 0 1 2.105813,-2.09548 z"
           style="opacity:1;fill:#000000;fill-opacity:1;stroke:none;stroke-width:0.30204037;stroke-miterlimit:4;stroke-dasharray:none;stroke-opacity:1;paint-order:stroke markers fill" />
        <path
           id="path2995"
           d="m -75.856223,109.23624 -4.733044,1.30742 -1.234036,4.75268 3.498496,3.44527 4.733563,-1.30742 1.234032,-4.75268 z m -1.228866,2.65204 a 2.1009095,2.1009095 0 0 1 2.095995,2.10581 2.1009095,2.1009095 0 0 1 -2.106332,2.096 2.1009095,2.1009095 0 0 1 -2.095479,-2.10633 2.1009095,2.1009095 0 0 1 2.105816,-2.09548 z"
           style="opacity:1;fill:#000000;fill-opacity:1;stroke:none;stroke-width:0.30204037;stroke-miterlimit:4;stroke-dasharray:none;stroke-opacity:1;paint-order:stroke markers fill" />
        <path
           id="path3001"
           d="m -61.326362,109.23624 -4.733044,1.30742 -1.234033,4.75268 3.498496,3.44527 4.733044,-1.30742 1.234549,-4.75268 z m -1.228865,2.65204 a 2.1009095,2.1009095 0 0 1 2.095479,2.10581 2.1009095,2.1009095 0 0 1 -2.105814,2.096 2.1009095,2.1009095 0 0 1 -2.095995,-2.10633 2.1009095,2.1009095 0 0 1 2.10633,-2.09548 z"
           style="opacity:1;fill:#999999;fill-opacity:1;stroke:none;stroke-width:0.30204037;stroke-miterlimit:4;stroke-dasharray:none;stroke-opacity:1;paint-order:stroke markers fill" />
        <path
           id="path3007"
           d="m -46.796498,109.23624 -4.733044,1.30742 -1.234551,4.75268 3.499011,3.44527 4.733044,-1.30742 1.234552,-4.75268 z m -1.228865,2.65204 a 2.1009095,2.1009095 0 0 1 2.095479,2.10581 2.1009095,2.1009095 0 0 1 -2.105814,2.096 2.1009095,2.1009095 0 0 1 -2.095997,-2.10633 2.1009095,2.1009095 0 0 1 2.106332,-2.09548 z"
           style="opacity:1;fill:#999999;fill-opacity:1;stroke:none;stroke-width:0.30204037;stroke-miterlimit:4;stroke-dasharray:none;stroke-opacity:1;paint-order:stroke markers fill" />
      </g>
      <g
         id="g1292">
        <path
           id="path3015"
           d="m -104.91595,92.971086 -4.73305,1.307412 -1.23403,4.752681 3.49901,3.445271 4.73305,-1.30742 1.23403,-4.752678 z m -1.22886,2.651516 a 2.1009095,2.1009095 0 0 1 2.09599,2.106332 2.1009095,2.1009095 0 0 1 -2.10633,2.095479 2.1009095,2.1009095 0 0 1 -2.09548,-2.105813 2.1009095,2.1009095 0 0 1 2.10582,-2.095998 z"
           style="opacity:1;fill:#000000;fill-opacity:1;stroke:none;stroke-width:0.30204037;stroke-miterlimit:4;stroke-dasharray:none;stroke-opacity:1;paint-order:stroke markers fill" />
        <path
           id="path3021"
           transform="matrix(0.26458333,0,0,0.26458333,0,11.249983)"
           d="m -341.61719,308.86719 -17.88867,4.9414 -4.66406,17.96289 13.22461,13.02149 17.88867,-4.94141 4.66406,-17.96289 z m -4.64453,10.02148 a 7.9404452,7.9404452 0 0 1 7.92188,7.96094 7.9404452,7.9404452 0 0 1 -7.96094,7.91992 7.9404452,7.9404452 0 0 1 -7.91992,-7.95898 7.9404452,7.9404452 0 0 1 7.95898,-7.92188 z"
           style="opacity:1;fill:#000000;fill-opacity:1;stroke:none;stroke-width:1.14156985;stroke-miterlimit:4;stroke-dasharray:none;stroke-opacity:1;paint-order:stroke markers fill" />
        <path
           id="path3027"
           d="m -75.856223,92.971086 -4.733044,1.307412 -1.234036,4.752681 3.498496,3.445271 4.733563,-1.30742 1.234032,-4.752678 z m -1.228866,2.651516 a 2.1009095,2.1009095 0 0 1 2.095479,2.106332 2.1009095,2.1009095 0 0 1 -2.105816,2.095479 2.1009095,2.1009095 0 0 1 -2.095995,-2.105813 2.1009095,2.1009095 0 0 1 2.106332,-2.095998 z"
           style="opacity:1;fill:#999999;fill-opacity:1;stroke:none;stroke-width:0.30204037;stroke-miterlimit:4;stroke-dasharray:none;stroke-opacity:1;paint-order:stroke markers fill" />
        <path
           id="path3033"
           d="m -61.326362,92.971086 -4.733044,1.307412 -1.234033,4.752681 3.498496,3.445271 4.733044,-1.30742 1.234549,-4.752678 z m -1.228865,2.651516 a 2.1009095,2.1009095 0 0 1 2.095479,2.106332 2.1009095,2.1009095 0 0 1 -2.105814,2.095479 2.1009095,2.1009095 0 0 1 -2.095995,-2.105813 2.1009095,2.1009095 0 0 1 2.10633,-2.095998 z"
           style="opacity:1;fill:#999999;fill-opacity:1;stroke:none;stroke-width:0.30204037;stroke-miterlimit:4;stroke-dasharray:none;stroke-opacity:1;paint-order:stroke markers fill" />
        <path
           id="path3039"
           d="m -46.796498,92.971086 -4.733044,1.307412 -1.234551,4.752681 3.499011,3.445271 4.733044,-1.30742 1.234552,-4.752678 z m -1.229381,2.651516 a 2.1009095,2.1009095 0 0 1 2.095995,2.106332 2.1009095,2.1009095 0 0 1 -2.106332,2.095479 2.1009095,2.1009095 0 0 1 -2.095479,-2.105813 2.1009095,2.1009095 0 0 1 2.105816,-2.095998 z"
           style="opacity:1;fill:#999999;fill-opacity:1;stroke:none;stroke-width:0.30204037;stroke-miterlimit:4;stroke-dasharray:none;stroke-opacity:1;paint-order:stroke markers fill" />
      </g>
      <text
         xml:space="preserve"
         style="font-style:normal;font-weight:normal;font-size:21.04184341px;line-height:0;font-family:sans-serif;letter-spacing:0px;word-spacing:0px;fill:#000000;fill-opacity:1;stroke:none;stroke-width:0.52604604"
         x="-156.30319"
         y="100.23063"
         id="text3051"><tspan
           id="tspan3049"
           x="-156.30319"
           y="100.23063"
           style="font-style:normal;font-variant:normal;font-weight:normal;font-stretch:normal;font-size:7.76111126px;font-family:Linowrite;-inkscape-font-specification:Linowrite;stroke-width:0.52604604">FUN</tspan></text>
      <text
         id="text3055"
         y="116.13982"
         x="-156.30319"
         style="font-style:normal;font-weight:normal;font-size:21.04184341px;line-height:0;font-family:sans-serif;letter-spacing:0px;word-spacing:0px;fill:#000000;fill-opacity:1;stroke:none;stroke-width:0.52604604"
         xml:space="preserve"><tspan
           style="font-style:normal;font-variant:normal;font-weight:normal;font-stretch:normal;font-size:7.76111126px;font-family:Linowrite;-inkscape-font-specification:Linowrite;stroke-width:0.52604604"
           y="116.13982"
           x="-156.30319"
           id="tspan3053">PRATIQUE</tspan></text>
      <text
         xml:space="preserve"
         style="font-style:normal;font-weight:normal;font-size:21.04184341px;line-height:0;font-family:sans-serif;letter-spacing:0px;word-spacing:0px;fill:#000000;fill-opacity:1;stroke:none;stroke-width:0.52604604"
         x="-156.30319"
         y="132.7614"
         id="text3059"><tspan
           id="tspan3057"
           x="-156.30319"
           y="132.7614"
           style="font-style:normal;font-variant:normal;font-weight:normal;font-stretch:normal;font-size:8.46666718px;font-family:Linowrite;-inkscape-font-specification:Linowrite;stroke-width:0.52604604">LOOK</tspan></text>
    </g>
  </g>
</svg>
