<?xml version="1.0" encoding="UTF-8" standalone="no"?>
<svg
   xmlns:dc="http://purl.org/dc/elements/1.1/"
   xmlns:cc="http://creativecommons.org/ns#"
   xmlns:rdf="http://www.w3.org/1999/02/22-rdf-syntax-ns#"
   xmlns:svg="http://www.w3.org/2000/svg"
   xmlns="http://www.w3.org/2000/svg"
   xmlns:sodipodi="http://sodipodi.sourceforge.net/DTD/sodipodi-0.dtd"
   xmlns:inkscape="http://www.inkscape.org/namespaces/inkscape"
   id="svg946"
   version="1.1"
   viewBox="0 0 4.2333333 4.2333335"
   height="16"
   width="16"
   sodipodi:docname="wrench_and_fork_BLACK_16.svg"
   inkscape:version="0.92.2 (5c3e80d, 2017-08-06)">
  <sodipodi:namedview
     pagecolor="#ffffff"
     bordercolor="#666666"
     borderopacity="1"
     objecttolerance="10"
     gridtolerance="10"
     guidetolerance="10"
     inkscape:pageopacity="0"
     inkscape:pageshadow="2"
     inkscape:window-width="1910"
     inkscape:window-height="1025"
     id="namedview38"
     showgrid="false"
     showguides="true"
     inkscape:guide-bbox="true"
     inkscape:snap-page="true"
     inkscape:snap-bbox="true"
     inkscape:snap-bbox-midpoints="true"
     inkscape:snap-bbox-edge-midpoints="false"
     inkscape:bbox-nodes="false"
     inkscape:bbox-paths="false"
     inkscape:zoom="10.429825"
     inkscape:cx="37.646588"
     inkscape:cy="9.5271996"
     inkscape:window-x="0"
     inkscape:window-y="27"
     inkscape:window-maximized="0"
     inkscape:current-layer="svg946">
    <inkscape:grid
       type="xygrid"
       id="grid845" />
    <sodipodi:guide
       position="0,0"
       orientation="1,0"
       id="guide879"
       inkscape:locked="false" />
    <sodipodi:guide
       position="4.2333333,0"
       orientation="1,0"
       id="guide881"
       inkscape:locked="false" />
    <sodipodi:guide
       position="2.1166666,-2.38265"
       orientation="1,0"
       id="guide883"
       inkscape:locked="false" />
    <sodipodi:guide
       position="4.2333333,4.2333335"
       orientation="-0.70710678,0.70710678"
       id="guide887"
       inkscape:locked="false" />
  </sodipodi:namedview>
  <defs
     id="defs940" />
  <metadata
     id="metadata943">
    <rdf:RDF>
      <cc:Work
         rdf:about="">
        <dc:format>image/svg+xml</dc:format>
        <dc:type
           rdf:resource="http://purl.org/dc/dcmitype/StillImage" />
        <dc:title></dc:title>
      </cc:Work>
    </rdf:RDF>
  </metadata>
  <path
     inkscape:connector-curvature="0"
     style="fill:#000000;fill-opacity:1;stroke-width:0.01089927"
     d="M 3.0032482,3.9113713 C 2.7125084,3.8408466 2.5304624,3.541929 2.602738,3.2537344 L 2.6201894,3.1841361 2.3547768,2.9157927 C 2.2088002,2.7682071 1.8588449,2.4154163 1.5770997,2.1318136 L 1.0648344,1.616178 1.0113307,1.6325311 c -0.02943,0.00901 -0.091071,0.016353 -0.13698652,0.016353 -0.15253648,0 -0.28778001,-0.058592 -0.39174192,-0.1697303 C 0.36758157,1.3561987 0.31733483,1.202872 0.33934121,1.0420118 0.34605021,0.99295363 0.35696971,0.93727773 0.36360211,0.91824163 L 0.37566624,0.88366303 0.56779083,1.0755683 0.75991379,1.2674685 0.91138914,1.1157061 1.0628634,0.96393803 0.87583871,0.77014431 C 0.77297434,0.66352692 0.68881246,0.57299906 0.68881246,0.56893365 c 0,-0.009213 0.0743314,-0.0280985 0.14847356,-0.0378192 C 0.97563144,0.51298983 1.1580886,0.58002131 1.267291,0.68902816 1.3916161,0.81313249 1.4521965,1.0067388 1.4174055,1.1687736 l -0.016703,0.07779 0.4424262,0.4443566 C 2.0864631,1.9353215 2.4449566,2.2975444 2.6397806,2.4958693 L 2.9940088,2.856472 3.0539538,2.846702 C 3.1639055,2.828729 3.312045,2.852672 3.424482,2.906539 3.6382757,3.0089735 3.7596163,3.2673989 3.7075575,3.5094106 3.6862432,3.6084845 3.6932501,3.6118563 3.4819031,3.4009402 L 3.2880314,3.2074553 3.1357021,3.3600834 2.9833711,3.5127065 3.171253,3.7008147 c 0.1033352,0.1034583 0.1878804,0.191151 0.1878804,0.1948772 0,0.029313 -0.2536299,0.040503 -0.3558842,0.015644 z M 0.55473644,3.8025516 C 0.47895705,3.7818442 0.41600865,3.7318704 0.37985883,3.6637652 c -0.026468,-0.049868 -0.0302448,-0.06736 -0.0257345,-0.1191833 0.006569,-0.075431 0.0355962,-0.1329693 0.0967273,-0.1917585 0.0730406,-0.070236 1.17859817,-1.039068 1.18570787,-1.039068 0.00344,0 0.061616,0.055483 0.1292344,0.1232943 L 1.8887388,2.560344 1.4722391,3.0119859 C 1.2431653,3.2603869 0.99647804,3.5290492 0.92404714,3.609011 0.75260316,3.7982735 0.67938048,3.8366444 0.55473541,3.8025516 Z M 2.2417869,1.9645642 2.1438633,1.865941 2.2605425,1.7546961 2.3772187,1.6434513 2.3606836,1.4963112 C 2.3515918,1.4153823 2.3469478,1.3273354 2.3503706,1.3006493 2.3716442,1.1346251 2.5318414,0.98886723 3.2414055,0.48991861 3.3834702,0.3900195 3.5067122,0.30829075 3.5152785,0.30829075 c 0.00857,0 0.021254,0.006887 0.028195,0.0151888 0.010222,0.0123024 -0.060354,0.0851459 -0.3719667,0.38382581 C 2.9599853,0.91004493 2.7809005,1.08662 2.7735432,1.0996922 c -0.018489,0.032857 0.00785,0.056612 0.043671,0.039439 0.01331,-0.00638 0.2002615,-0.17159837 0.4154444,-0.36713368 l 0.3912433,-0.35550957 0.026048,0.0244534 0.026053,0.0245039 -0.3804428,0.38192719 C 3.086315,1.0574377 2.9119036,1.2385947 2.9079775,1.2499505 c -0.00821,0.023744 0.020236,0.061098 0.046491,0.061098 0.00937,0 0.1889431,-0.1716642 0.3990618,-0.38147647 0.2101177,-0.20981247 0.3873115,-0.38147162 0.393764,-0.38147162 0.00645,0 0.019836,0.008961 0.029749,0.0198972 0.017077,0.0188843 0.00481,0.0346805 -0.2345861,0.30245653 C 3.4035245,1.025851 3.2367757,1.2109873 3.1719025,1.2818613 3.1070299,1.3527355 3.0539536,1.4146686 3.0539536,1.4194884 c 0,0.017365 0.032093,0.034882 0.052242,0.028504 0.011325,-0.00354 0.1866385,-0.1805646 0.3895842,-0.3932729 0.2029463,-0.21270321 0.3750575,-0.38673687 0.38247,-0.38673687 0.026691,0 0.027927,0.0427304 0.00233,0.0790255 C 3.8243856,0.8265186 3.3545981,1.4705822 3.2833306,1.5658134 3.1387184,1.7590603 3.0040734,1.8559723 2.8801802,1.8559925 c -0.03265,5.1e-6 -0.1144025,-0.00536 -0.1816673,-0.011948 -0.068048,-0.00668 -0.1295048,-0.00785 -0.1385425,-0.00304 -0.00893,0.00506 -0.059023,0.055812 -0.1113075,0.1127586 -0.052284,0.056951 -0.098179,0.1047948 -0.1019875,0.1063238 -0.00379,0.00152 -0.050992,-0.041617 -0.1048506,-0.095839 z"
     id="path1399" />
</svg>
