<?xml version="1.0" encoding="UTF-8" standalone="no"?>
<svg
   xmlns:dc="http://purl.org/dc/elements/1.1/"
   xmlns:cc="http://creativecommons.org/ns#"
   xmlns:rdf="http://www.w3.org/1999/02/22-rdf-syntax-ns#"
   xmlns:svg="http://www.w3.org/2000/svg"
   xmlns="http://www.w3.org/2000/svg"
   xmlns:sodipodi="http://sodipodi.sourceforge.net/DTD/sodipodi-0.dtd"
   xmlns:inkscape="http://www.inkscape.org/namespaces/inkscape"
   id="svg946"
   version="1.1"
   viewBox="0 0 6.3499999 6.3500002"
   height="24"
   width="24"
   sodipodi:docname="wrench_and_fork_BLACK_24.svg"
   inkscape:version="0.92.2 (5c3e80d, 2017-08-06)">
  <sodipodi:namedview
     pagecolor="#ffffff"
     bordercolor="#666666"
     borderopacity="1"
     objecttolerance="10"
     gridtolerance="10"
     guidetolerance="10"
     inkscape:pageopacity="0"
     inkscape:pageshadow="2"
     inkscape:window-width="1920"
     inkscape:window-height="1025"
     id="namedview35"
     showgrid="false"
     inkscape:snap-page="true"
     showguides="true"
     inkscape:guide-bbox="true"
     inkscape:snap-bbox="true"
     inkscape:snap-bbox-edge-midpoints="true"
     inkscape:snap-bbox-midpoints="true"
     inkscape:bbox-nodes="true"
     inkscape:zoom="14.75"
     inkscape:cx="-4.5263238"
     inkscape:cy="12.322301"
     inkscape:window-x="0"
     inkscape:window-y="27"
     inkscape:window-maximized="1"
     inkscape:current-layer="svg946">
    <sodipodi:guide
       position="-0.4663842,3.2108757"
       orientation="0,1"
       id="guide873"
       inkscape:locked="false" />
    <sodipodi:guide
       position="3.2108754,6.3500002"
       orientation="1,0"
       id="guide877"
       inkscape:locked="false" />
  </sodipodi:namedview>
  <defs
     id="defs940" />
  <metadata
     id="metadata943">
    <rdf:RDF>
      <cc:Work
         rdf:about="">
        <dc:format>image/svg+xml</dc:format>
        <dc:type
           rdf:resource="http://purl.org/dc/dcmitype/StillImage" />
        <dc:title></dc:title>
      </cc:Work>
    </rdf:RDF>
  </metadata>
  <path
     inkscape:connector-curvature="0"
     style="fill:#000000;fill-opacity:1;stroke-width:0.01709237"
     d="M 4.6012249,5.9536035 C 4.1452832,5.8430056 3.8597963,5.3742392 3.9731397,4.9222886 L 4.0005073,4.8131438 3.5842838,4.3923243 C 3.3553614,4.1608786 2.8065573,3.6076274 2.3647209,3.1628781 L 1.5613795,2.3542519 1.4774745,2.3798967 c -0.046153,0.014133 -0.1428189,0.025645 -0.2148242,0.025645 -0.2392097,0 -0.45130018,-0.091885 -0.61433478,-0.2661732 -0.1803768,-0.19282 -0.2591744,-0.433269 -0.2246636,-0.6855321 0.010528,-0.076934 0.027645,-0.1642454 0.038046,-0.1940981 l 0.01892,-0.054227 0.3012922,0.3009483 L 1.0831998,1.8074001 1.3207453,1.5694043 1.5582886,1.3314007 1.2649939,1.0274908 C 1.1036807,0.86029197 0.97169692,0.71832507 0.97169692,0.71194963 c 0,-0.0144502 0.11656758,-0.0440649 0.23283818,-0.0593082 0.2169552,-0.028424 0.5030868,0.0766963 0.6743397,0.24764236 C 2.073843,1.0949057 2.168846,1.3985218 2.1142863,1.6526269 l -0.026193,0.121991 0.6938183,0.6968457 c 0.3815998,0.3832731 0.9437941,0.9513157 1.2493196,1.2623313 l 0.5555051,0.5655019 0.094007,-0.015323 c 0.1724278,-0.028185 0.404742,0.00937 0.5810674,0.093838 0.3352728,0.16064 0.5255605,0.565906 0.4439214,0.945432 -0.033426,0.1553686 -0.022437,0.1606563 -0.3538742,-0.170105 L 5.0478257,4.8497133 4.8089409,5.0890667 4.5700534,5.3284122 4.8646923,5.6234059 c 0.1620517,0.1622445 0.2946364,0.2997653 0.2946364,0.3056088 0,0.04597 -0.3977456,0.063517 -0.5581022,0.024533 z M 0.76143732,5.782951 C 0.64259902,5.750478 0.54388272,5.672107 0.48719202,5.5653043 c -0.041508,-0.078205 -0.047431,-0.1056356 -0.040357,-0.1869048 0.010298,-0.1182913 0.055823,-0.2085242 0.1516889,-0.3007181 0.114543,-0.1101452 1.84829318,-1.62948 1.85944258,-1.62948 0.0054,0 0.096627,0.087009 0.2026671,0.1933517 l 0.1928032,0.1933517 -0.65316,0.7082708 C 1.8410402,4.9327213 1.4541818,5.354041 1.3405948,5.4794382 1.0717341,5.776242 0.95690532,5.8364158 0.76143542,5.782951 Z M 3.4070915,2.9005953 3.2535265,2.7459332 3.4365044,2.5714778 3.6194775,2.3970223 3.5935465,2.1662753 C 3.5792955,2.0393617 3.5720065,1.9012852 3.5773735,1.8594358 3.6107355,1.5990744 3.8619585,1.370495 4.9747059,0.58803711 c 0.2227876,-0.1566631 0.4160575,-0.2848311 0.4294913,-0.2848311 0.013441,0 0.03333,0.010798 0.044215,0.023819 0.01603,0.019293 -0.094649,0.1335273 -0.5833228,0.60192062 C 4.5333785,1.2468846 4.2525355,1.523792 4.2409977,1.5442919 c -0.028995,0.051528 0.012314,0.088781 0.068487,0.06185 C 4.3303567,1.5961409 4.6235372,1.337039 4.96099,1.0303979 l 0.6135528,-0.55751469 0.040849,0.038348 0.040857,0.038427 L 5.0596325,1.1486011 C 4.7314903,1.4780286 4.4579763,1.7621214 4.4518192,1.7799297 c -0.012878,0.037236 0.031734,0.095814 0.072908,0.095814 0.014688,0 0.2963029,-0.2692061 0.6258137,-0.5982366 0.3295094,-0.32903061 0.6073869,-0.5982287 0.617506,-0.5982287 0.01011,0 0.031106,0.0140526 0.046653,0.0312019 0.02678,0.0296147 0.00755,0.0543856 -0.3678812,0.4743162 C 5.2289426,1.4284928 4.9674451,1.7188261 4.8657102,1.8299717 4.7639757,1.9411174 4.680741,2.0382417 4.680741,2.0458002 c 0,0.027232 0.050328,0.054703 0.081926,0.044699 0.017761,-0.00556 0.2926893,-0.2831628 0.6109514,-0.6167348 0.3182629,-0.333564 0.58817,-0.60648576 0.5997943,-0.60648576 0.041858,0 0.043794,0.0670099 0.00365,0.12392829 C 5.8889427,1.1158976 5.1522159,2.1259265 5.0404533,2.2752694 4.8136707,2.5783217 4.6025185,2.7303003 4.4082276,2.7303321 c -0.051202,8e-6 -0.1794075,-0.00842 -0.284893,-0.018737 -0.1067139,-0.01048 -0.2030912,-0.012306 -0.2172641,-0.00476 -0.014013,0.00794 -0.09256,0.087525 -0.174554,0.1768292 -0.081992,0.089312 -0.1539652,0.1643407 -0.1599381,0.1667384 -0.00596,0.00238 -0.079966,-0.065263 -0.1644279,-0.1502955 z"
     id="path1399" />
</svg>
